<?xml version="1.0" encoding="UTF-8"?><svg id="uuid-9df9827c-904f-4d28-89b5-874891985629" xmlns="http://www.w3.org/2000/svg" viewBox="0 0 369.25 191.57"><g id="uuid-a91eacc2-3d59-4dc4-b846-e33795415ae6"><rect x="0" width="369.25" height="191.57" rx="30.65" ry="30.65" style="fill:#1995d3;"/><g id="uuid-7d72f996-d100-4a13-a897-8371ae54b8d0"><g><path d="M221.18,133.7c-4.89,11.13-12.56,18.55-25.62,18.48-11.52-.07-21.15-7.06-26.04-18.94-.49-1.2-.82-2.46-1.38-4.16,3.85-1.56,7.46-3.02,11.25-4.55,1.53,2.51,2.7,4.89,4.28,6.96,6.99,9.17,17.68,8.01,22.38-2.46,3.41-7.57,3.49-15.43,.87-23.21-2.25-6.66-8.26-10.3-16.41-10.52-7.66-.2-9.22-3.11-5.22-10.09,5.49-9.59,11.1-19.12,17.18-29.56-7.34,0-13.88-.33-20.33,.25-1.49,.13-3.28,3.24-3.91,5.3-6.12,20.04-12.02,40.15-17.99,60.24-2.63,8.86-5.25,17.72-7.93,26.56-.44,1.46-1.1,2.84-1.66,4.26-.51,0-1.02-.02-1.53-.04-6.52-21.68-13.04-43.36-19.57-65.04-.35-.07-.7-.15-1.05-.22-6.55,21.69-13.09,43.39-19.63,65.08-.61,.08-1.22,.15-1.83,.22-11.39-36.56-21.81-73.4-33.17-110.99,5,0,9.26-.34,13.4,.2,1.23,.16,2.6,2.66,3.1,4.32,5.79,19.28,11.42,38.61,17.1,57.92,.18,.62,.46,1.21,1.16,2.99,1.99-6.69,3.67-12.36,5.36-18.03,.33-1.11,.57-2.25,1-3.32,5.37-13.39,7.73-26.83,.92-40.5-.41-.83-.37-1.89-.68-3.63,4.48,0,8.35-.45,12.02,.21,1.58,.29,3.43,2.68,3.97,4.48,5.82,19.09,11.39,38.26,17.04,57.41,.23,.77,.57,1.51,1.28,3.36,3.25-10.97,6.21-20.96,9.17-30.95,2.99-10.12,6-20.25,8.95-30.38,.68-2.32,1.27-4.23,4.46-4.2,16.25,.15,32.51,.09,48.77,.13,.46,0,.93,.23,2.69,.7-.83,3.33-1.02,6.97-2.58,9.89-4.75,8.89-10.04,17.5-15.1,26.23-.8,1.39-1.51,2.84-2.28,4.29,22.49,9.4,24.25,36.05,17.56,51.31Z" style="fill:#17477f;"/><path d="M273.79,70.74c-1.72-2.26-3.12-4.26-4.68-6.12-8.06-9.58-18.33-9.29-25.67,1-6.95,9.73-8.39,20.97-8.02,32.58,.05,1.32,.19,2.64,.22,3.96,0,.22-.32,.46-1.42,1.92-1.34-5.79-2.94-10.57-3.48-15.46-1.27-11.55,.43-22.73,5.76-33.2,.75-1.46,1.64-2.88,2.62-4.21,8.46-11.53,20.05-11.65,28.8-.34,1.09,1.41,2.17,2.81,3.68,4.76,2.59-4.9,4.94-9.32,7.59-14.33,5.84,11.79,.4,20.37-5.4,29.44Z" style="fill:#17477f;"/><path d="M280.5,136.41c-13.83,20.54-34.05,20.65-47.3-.2-2.85-4.49-4.84-9.52-7.23-14.29,.43-.19,.85-.37,1.28-.56,16.27,27.3,38.52,24.04,53.61-.88,1.09,5.96,3.29,10.5-.36,15.93Z" style="fill:#17477f;"/><path d="M290.64,49.66c-2-.39-4.69-2.73-5.02-4.56-.3-1.65,2.2-3.8,3.47-5.73,.77-.03,1.54-.05,2.32-.07,1.34,1.84,3.43,3.54,3.86,5.57,.65,3.08-1.8,5.35-4.63,4.79Z" style="fill:#17477f;"/></g></g></g></svg>